<svg viewBox="0 0 200 200" xmlns="http://www.w3.org/2000/svg">
  <defs>
    <linearGradient id="purpleGradient" x1="0%" y1="0%" x2="100%" y2="100%">
      <stop offset="0%" style="stop-color:#9333EA;stop-opacity:1" />
      <stop offset="100%" style="stop-color:#7C3AED;stop-opacity:1" />
    </linearGradient>
    <linearGradient id="innerGradient" x1="0%" y1="0%" x2="100%" y2="100%">
      <stop offset="0%" style="stop-color:#5B21B6;stop-opacity:1" />
      <stop offset="100%" style="stop-color:#6B46C1;stop-opacity:1" />
    </linearGradient>
  </defs>
  
  <!-- Outer P shape -->
  <path d="M 50 40 
           L 50 160 
           L 70 160 
           L 70 110 
           L 120 110 
           Q 140 110 140 90 
           L 140 60 
           Q 140 40 120 40 
           L 50 40 Z
           
           M 70 60 
           L 115 60 
           Q 120 60 120 65 
           L 120 85 
           Q 120 90 115 90 
           L 70 90 
           L 70 60 Z" 
        fill="url(#purpleGradient)" />
  
  <!-- Inner P shape for depth -->
  <path d="M 90 70 
           L 90 130 
           L 110 130 
           L 110 100 
           L 130 100 
           Q 140 100 140 90 
           L 140 80 
           Q 140 70 130 70 
           L 90 70 Z
           
           M 110 85 
           L 125 85 
           Q 130 85 130 87.5 
           L 130 87.5 
           Q 130 90 125 90 
           L 110 90 
           L 110 85 Z" 
        fill="url(#innerGradient)" />
</svg>