<svg width="1000" height="1000" viewBox="0 0 1000 1000" fill="none" xmlns="http://www.w3.org/2000/svg">
<path d="M824.696 376.348C824.696 196.99 679.706 52 500.348 52C320.99 52 176 196.99 176 376.348V947.716L423.02 824.206V619.072L670.04 700.696L773.681 649.144L824.696 623.905V376.348ZM423.02 612.628V376.348C423.02 308.149 478.331 252.838 546.53 252.838C614.729 252.838 670.04 308.149 670.04 376.348V694.252L423.02 612.628Z" fill="#9969FF"/>
<path d="M423.02 612.628V376.348C423.02 308.149 478.331 252.838 546.53 252.838C614.729 252.838 670.04 308.149 670.04 376.348V694.252L423.02 612.628Z" fill="#47238D"/>
<path d="M824.696 376.348C824.696 196.99 679.706 52 500.348 52C320.99 52 176 196.99 176 376.348V947.716L423.02 824.206V619.072L670.04 700.696L773.681 649.144L824.696 623.905V376.348ZM423.02 612.628V376.348C423.02 308.149 478.331 252.838 546.53 252.838C614.729 252.838 670.04 308.149 670.04 376.348V694.252L423.02 612.628Z" stroke="#5D30BE" stroke-width="14"/>
<path d="M423.02 612.628V376.348C423.02 308.149 478.331 252.838 546.53 252.838C614.729 252.838 670.04 308.149 670.04 376.348V694.252L423.02 612.628Z" stroke="#5D30BE" stroke-width="14"/>
</svg>
